{"title":"Big Mouthfuls Latin Sexiness - Serena Torres.mp4","uid":9149698,"size":391394172,"categoryP":"porn","categoryS":"movie_clips","magnet":"?xt=urn:btih:43a94e3efe74555cfa92c9a9dd64291c83fe38b0&amp;dn=Big+Mouthfuls+Latin+Sexiness+-+Serena+Torres.mp4&amp;tr=udp%3A%2F%2Ftracker.openbittorrent.com%3A80&amp;tr=udp%3A%2F%2Fopen.demonii.com%3A1337&amp;tr=udp%3A%2F%2Ftracker.coppersurfer.tk%3A6969&amp;tr=udp%3A%2F%2Fexodus.desync.com%3A6969","seeders":0,"leechers":1,"uploader":null,"files":1,"time":1383666737,"description":" &lt;a href=&quot;http://bayimg.com/oaCHfAAFa&quot; rel=&quot;nofollow&quot; target=&quot;_NEW&quot;&gt;http://bayimg.com/oaCHfAAFa&lt;/a&gt;\n\n\nSerena Torres is absoutely gorgeous! This amateur Latina is one of the sexiest piece of ass that has walked through these doors in quite some time. She's all natural and ready to take the porn world by storm. Serena clearly shows she made for this. She can suck a dick and take the dick. Oh! Not to mention, she loves the taste of cum. Enjoy!\n18+ Teens, Amateur, Big Ass, Blowjob, Brunette, Cumshot, Facial, Handjob, Hardcore, Latina, Natural Tits, Swallow\n\nFormat : MPEG-4\nFormat profile : Base Media\nCodec ID : isom\nFile size : 373 MiB\nDuration : 33mn 9s\nOverall bit rate mode : Variable\nOverall bit rate : 1 574 Kbps\nWriting application : Lavf55.12.100\n\nVideo\nID : 1\nFormat : AVC\nFormat/Info : Advanced Video Codec\nFormat profile : &lt;a class=&quot;__cf_email__&quot; href=&quot;/cdn-cgi/l/email-protection&quot; data-cfemail=&quot;bbf6dad2d5fbf788958a&quot;&gt;[email&amp;#160;protected]&lt;/a&gt;&lt;script cf-hash='f9e31' type=&quot;text/javascript&quot;&gt;\n/* &lt;![CDATA[ */!function(){try{var t=&quot;currentScript&quot;in document?document.currentScript:function(){for(var t=document.getElementsByTagName(&quot;script&quot;),e=t.length;e--;)if(t[e].getAttribute(&quot;cf-hash&quot;))return t[e]}();if(t&amp;&amp;t.previousSibling){var e,r,n,i,c=t.previousSibling,a=c.getAttribute(&quot;data-cfemail&quot;);if(a){for(e=&quot;&quot;,r=parseInt(a.substr(0,2),16),n=2;a.length-n;n+=2)i=parseInt(a.substr(n,2),16)^r,e+=String.fromCharCode(i);e=document.createTextNode(e),c.parentNode.replaceChild(e,c)}}}catch(u){}}();/* ]]&gt; */&lt;/script&gt;\nFormat settings, CABAC : Yes\nFormat settings, ReFrames : 6 frames\nCodec ID : avc1\nCodec ID/Info : Advanced Video Coding\nDuration : 33mn 9s\nBit rate : 1 500 Kbps\nWidth : 852 pixels\nHeight : 480 pixels\nDisplay aspect ratio : 16:9\nOriginal display aspect ratio : 16:9\nFrame rate mode : Constant\nFrame rate : 29.970 fps\nColor space : YUV\nChroma subsampling : 4:2:0\nBit depth : 8 bits\nScan type : Progressive\nBits/(Pixel*Frame) : 0.122\nStream size : 353 MiB (95%)\nWriting library : x264 core 124 r2019+178 69a0443\nLanguage : English\n\nAudio\nID : 2\nFormat : AAC\nFormat/Info : Advanced Audio Codec\nFormat profile : LC\nCodec ID : 40\nDuration : 33mn 9s\nDuration_LastFrame : -21ms\nBit rate mode : Variable\nBit rate : 76.7 Kbps\nMaximum bit rate : 1 500 Kbps\nChannel(s) : 2 channels\nChannel positions : Front: L R\nSampling rate : 44.1 KHz\nCompression mode : Lossy\nDelay relative to video : 67ms\nStream size : 18.2 MiB (5%)\nLanguage : English","torrent":{"xt":"urn:btih:43a94e3efe74555cfa92c9a9dd64291c83fe38b0","amp;dn":"Big+Mouthfuls+Latin+Sexiness+-+Serena+Torres.mp4","amp;tr":["udp%3A%2F%2Ftracker.openbittorrent.com%3A80","udp%3A%2F%2Fopen.demonii.com%3A1337","udp%3A%2F%2Ftracker.coppersurfer.tk%3A6969","udp%3A%2F%2Fexodus.desync.com%3A6969"],"infoHash":"43a94e3efe74555cfa92c9a9dd64291c83fe38b0","infoHashBuffer":{"type":"Buffer","data":[67,169,78,62,254,116,85,92,250,146,201,169,221,100,41,28,131,254,56,176]},"announce":[],"urlList":[]}}